<svg width="355" height="463" viewBox="0 0 355 463" fill="none" xmlns="http://www.w3.org/2000/svg">
<path opacity="0.139718" fill-rule="evenodd" clip-rule="evenodd" d="M0.629475 162.779C0.163417 164.348 0.00382014 178.99 0 198.171V199.688C0.00806475 239.174 0.642633 371.951 0.630324 375.24C0.556043 394.76 12.1782 415.249 41.3327 435.287C84.0529 464.649 115.756 453.065 146.508 446.084C172.061 440.285 196.148 434.485 223.196 449.537C282.793 482.705 323.798 447.682 386.481 406.266C403.151 395.252 411.015 382.221 411.926 368.139C412.163 364.472 412.691 321.643 412.696 283.055V281.954C412.692 251.434 412.355 223.836 411.28 220.77C399.349 186.738 353.014 192.629 299.501 163.968C241.91 133.122 189.822 115.286 143.603 115.289C118.118 115.29 94.4123 120.714 72.5658 132.371C39.8157 149.845 8.67682 135.711 0.629475 162.779Z" fill="url(#paint0_linear)"/>
<path fill-rule="evenodd" clip-rule="evenodd" d="M386.481 269.956C323.798 311.373 283.966 275.551 224.369 242.383C164.772 209.216 119.553 277.289 41.3325 223.528C-36.8883 169.767 11.0974 112.752 72.5656 79.9543C134.034 47.1566 210.156 63.6984 299.501 111.552C387.334 158.595 449.165 228.539 386.481 269.956Z" fill="#C59FFF"/>
<path fill-rule="evenodd" clip-rule="evenodd" d="M141.347 173.96C141.466 175.826 143.955 177.128 143.955 177.128L259.115 241.061C259.115 241.061 262.407 243.145 266.373 241.061C270.632 238.824 358.411 187.327 358.411 187.327C358.411 187.327 362.031 185.666 362.286 182.7C362.293 182.826 362.302 182.953 362.302 183.089V187.777C362.302 190.95 358.411 192.734 358.411 192.734C358.411 192.734 270.632 241.356 266.373 243.593C262.407 245.676 259.115 243.593 259.115 243.593L143.955 179.66C143.955 179.66 141.336 178.295 141.336 176.355V174.55C141.339 174.504 141.34 174 141.343 173.642C141.345 173.812 141.347 173.944 141.347 173.96Z" fill="#DDDDFC"/>
<path fill-rule="evenodd" clip-rule="evenodd" d="M143.581 170.16L239.061 114.199C242.503 112.331 244.972 114.199 244.972 114.199L358.411 177.27C358.411 177.27 362.301 179.353 362.301 182.37C362.301 182.482 362.295 182.591 362.286 182.699C362.031 185.666 358.411 187.327 358.411 187.327C358.411 187.327 270.632 238.824 266.373 241.061C262.407 243.144 259.115 241.061 259.115 241.061L143.955 177.128C143.955 177.128 141.466 175.826 141.347 173.959C141.346 173.944 141.345 173.812 141.343 173.642C141.34 173.303 141.336 172.811 141.336 172.781C141.336 171.285 143.581 170.16 143.581 170.16Z" fill="#F6F6FF"/>
<path fill-rule="evenodd" clip-rule="evenodd" d="M366.683 177.658C366.782 177.6 366.876 177.538 366.968 177.474C369.472 175.719 369.06 171.886 369.06 171.886C369.06 171.886 369.064 76.0035 368.832 71.3483C368.616 67.0131 365.047 65.402 365.047 65.402L248.174 1.52679C248.174 1.52679 245.719 0.167238 243.998 1.04275C243.984 1.05009 243.865 1.11778 243.713 1.20505C243.631 1.25317 243.538 1.30618 243.445 1.35919C243.445 1.35919 243.446 1.35919 243.446 1.35878C243.92 1.05661 244.862 0.602751 245.165 0.428628C245.317 0.341362 245.436 0.27367 245.45 0.266738C247.17 -0.609181 250.27 0.951406 250.27 0.951406L367.144 64.827C367.144 64.827 370.712 66.4377 370.928 70.7733C371.16 75.4286 371.156 171.311 371.156 171.311C371.156 171.311 371.568 175.143 369.064 176.899C368.973 176.963 368.879 177.025 368.78 177.083C366.098 178.656 363.474 178.188 363.474 178.188H363.474C364.536 178.318 365.692 178.24 366.683 177.658Z" fill="#DDDDFC"/>
<path fill-rule="evenodd" clip-rule="evenodd" d="M242.944 1.64879C242.965 1.63697 243.201 1.50036 243.445 1.35926C243.537 1.30625 243.63 1.25283 243.714 1.20512C243.866 1.11786 243.984 1.05017 243.998 1.04283C245.719 0.167314 248.174 1.52686 248.174 1.52686L365.047 65.4021C365.047 65.4021 368.616 67.0132 368.831 71.3484C369.064 76.0036 369.06 171.887 369.06 171.887C369.06 171.887 369.472 175.718 366.968 177.474C366.877 177.538 366.782 177.6 366.683 177.658C365.692 178.24 364.536 178.319 363.474 178.188C361.662 177.964 360.121 177.13 360.121 177.13L244.912 112.819C244.912 112.819 241.964 111.769 241.83 107.976L241.786 4.85397C241.786 4.85397 241.615 2.42847 242.944 1.64879Z" fill="#F6F6FF"/>
<path fill-rule="evenodd" clip-rule="evenodd" d="M330.325 180.006L330.306 179.867C330.309 179.914 330.315 179.96 330.325 180.006Z" fill="#DDDDFC"/>
<path fill-rule="evenodd" clip-rule="evenodd" d="M330.305 179.859L330.306 179.867C330.306 179.864 330.306 179.862 330.306 179.859H330.305Z" fill="#DDDDFC"/>
<path fill-rule="evenodd" clip-rule="evenodd" d="M345.775 180.875L339.889 184.117C338.825 184.703 338.136 184.647 337.255 184.187L330.919 180.718C330.561 180.506 330.381 180.258 330.325 180.006L330.393 180.506C330.437 180.761 330.664 180.974 330.944 181.14L337.28 184.609C338.161 185.069 338.851 185.125 339.914 184.54L345.801 181.297C346.163 181.097 346.511 180.957 346.546 180.556L346.594 179.821H346.591C346.573 180.224 346.279 180.597 345.775 180.875Z" fill="#DDDDFC"/>
<path fill-rule="evenodd" clip-rule="evenodd" d="M318.705 173.564L318.686 173.425C318.688 173.471 318.695 173.518 318.705 173.564Z" fill="#DDDDFC"/>
<path fill-rule="evenodd" clip-rule="evenodd" d="M318.685 173.417L318.686 173.425V173.417H318.685Z" fill="#DDDDFC"/>
<path fill-rule="evenodd" clip-rule="evenodd" d="M334.155 174.433L328.269 177.675C327.205 178.261 326.516 178.205 325.635 177.745L319.299 174.275C318.941 174.064 318.761 173.816 318.705 173.564L318.772 174.064C318.817 174.319 319.043 174.532 319.324 174.698L325.66 178.168C326.541 178.627 327.23 178.684 328.294 178.098L334.18 174.855C334.543 174.655 334.891 174.515 334.926 174.113L334.973 173.379L334.971 173.379C334.952 173.782 334.659 174.155 334.155 174.433Z" fill="#DDDDFC"/>
<path fill-rule="evenodd" clip-rule="evenodd" d="M322.661 167.898L316.775 171.14C315.712 171.726 315.022 171.67 314.14 171.21L307.805 167.74C307.447 167.529 307.267 167.28 307.211 167.028L307.278 167.529C307.323 167.784 307.55 167.996 307.83 168.162L314.166 171.632C315.047 172.092 315.736 172.148 316.8 171.562L322.686 168.32C323.049 168.12 323.396 167.979 323.432 167.578L323.479 166.844H323.477C323.459 167.246 323.165 167.62 322.661 167.898Z" fill="#DDDDFC"/>
<path fill-rule="evenodd" clip-rule="evenodd" d="M295.999 160.256L295.98 160.117C295.983 160.163 295.989 160.209 295.999 160.256Z" fill="#DDDDFC"/>
<path fill-rule="evenodd" clip-rule="evenodd" d="M295.979 160.109L295.981 160.117V160.109H295.979Z" fill="#DDDDFC"/>
<path fill-rule="evenodd" clip-rule="evenodd" d="M311.449 161.125L305.563 164.367C304.499 164.953 303.81 164.897 302.929 164.437L296.593 160.968C296.235 160.755 296.055 160.508 295.999 160.256L296.066 160.755C296.111 161.011 296.338 161.224 296.618 161.389L302.954 164.859C303.835 165.319 304.525 165.375 305.588 164.789L311.475 161.547C311.837 161.347 312.185 161.206 312.22 160.805L312.268 160.071H312.264C312.247 160.473 311.953 160.847 311.449 161.125Z" fill="#DDDDFC"/>
<path fill-rule="evenodd" clip-rule="evenodd" d="M284.379 153.814L284.36 153.675C284.362 153.721 284.369 153.767 284.379 153.814Z" fill="#DDDDFC"/>
<path fill-rule="evenodd" clip-rule="evenodd" d="M284.359 153.667L284.36 153.675V153.667H284.359Z" fill="#DDDDFC"/>
<path fill-rule="evenodd" clip-rule="evenodd" d="M299.829 154.683L293.943 157.925C292.879 158.511 292.19 158.455 291.309 157.995L284.973 154.525C284.615 154.314 284.435 154.066 284.379 153.814L284.446 154.314C284.491 154.569 284.717 154.782 284.999 154.947L291.335 158.417C292.215 158.877 292.904 158.933 293.968 158.347L299.854 155.105C300.217 154.905 300.565 154.765 300.6 154.363L300.647 153.628L300.645 153.629C300.627 154.032 300.333 154.405 299.829 154.683Z" fill="#DDDDFC"/>
<path fill-rule="evenodd" clip-rule="evenodd" d="M288.335 148.147L282.449 151.389C281.386 151.975 280.696 151.919 279.815 151.459L273.479 147.989C273.121 147.779 272.941 147.53 272.885 147.277L272.952 147.778C272.997 148.034 273.224 148.246 273.504 148.411L279.84 151.881C280.721 152.341 281.41 152.398 282.474 151.812L288.36 148.569C288.724 148.37 289.07 148.228 289.106 147.828L289.154 147.093H289.151C289.133 147.496 288.839 147.869 288.335 148.147Z" fill="#DDDDFC"/>
<path fill-rule="evenodd" clip-rule="evenodd" d="M261.4 140.692L261.401 140.699C261.401 140.696 261.402 140.694 261.401 140.692H261.4Z" fill="#DDDDFC"/>
<path fill-rule="evenodd" clip-rule="evenodd" d="M276.87 141.707L270.984 144.949C269.92 145.535 269.231 145.479 268.349 145.019L262.014 141.55C261.656 141.338 261.476 141.09 261.42 140.838L261.488 141.338C261.531 141.593 261.759 141.806 262.039 141.972L268.375 145.441C269.255 145.901 269.946 145.957 271.009 145.371L276.895 142.129C277.258 141.929 277.605 141.788 277.64 141.387L277.689 140.653H277.686C277.668 141.056 277.374 141.429 276.87 141.707Z" fill="#DDDDFC"/>
<path fill-rule="evenodd" clip-rule="evenodd" d="M249.8 134.396L249.781 134.257C249.783 134.303 249.79 134.349 249.8 134.396Z" fill="#DDDDFC"/>
<path fill-rule="evenodd" clip-rule="evenodd" d="M249.78 134.249L249.781 134.257V134.249H249.78Z" fill="#DDDDFC"/>
<path fill-rule="evenodd" clip-rule="evenodd" d="M265.25 135.265L259.364 138.507C258.3 139.093 257.61 139.037 256.73 138.577L250.393 135.107C250.036 134.896 249.856 134.648 249.8 134.396L249.867 134.896C249.912 135.152 250.138 135.364 250.419 135.53L256.756 138.999C257.636 139.459 258.325 139.515 259.389 138.929L265.275 135.687C265.638 135.487 265.985 135.347 266.021 134.946L266.068 134.21L266.066 134.211C266.047 134.613 265.754 134.987 265.25 135.265Z" fill="#DDDDFC"/>
<path fill-rule="evenodd" clip-rule="evenodd" d="M253.756 128.729L247.87 131.972C246.807 132.558 246.117 132.501 245.236 132.041L238.899 128.572C238.542 128.361 238.362 128.112 238.306 127.86L238.373 128.361C238.418 128.616 238.645 128.828 238.925 128.994L245.261 132.463C246.141 132.924 246.831 132.979 247.895 132.394L253.781 129.151C254.144 128.952 254.491 128.811 254.527 128.41L254.574 127.675H254.572C254.554 128.078 254.26 128.452 253.756 128.729Z" fill="#DDDDFC"/>
<path fill-rule="evenodd" clip-rule="evenodd" d="M318.894 186.542L318.875 186.403C318.877 186.449 318.883 186.495 318.894 186.542Z" fill="#DDDDFC"/>
<path fill-rule="evenodd" clip-rule="evenodd" d="M318.874 186.395L318.874 186.403C318.874 186.4 318.875 186.398 318.874 186.395H318.874Z" fill="#DDDDFC"/>
<path fill-rule="evenodd" clip-rule="evenodd" d="M307.273 180.1L307.254 179.961C307.257 180.007 307.264 180.053 307.273 180.1Z" fill="#DDDDFC"/>
<path fill-rule="evenodd" clip-rule="evenodd" d="M307.253 179.953L307.254 179.961C307.255 179.958 307.254 179.955 307.254 179.953H307.253Z" fill="#DDDDFC"/>
<path fill-rule="evenodd" clip-rule="evenodd" d="M322.724 180.969L316.838 184.211C315.774 184.797 315.085 184.74 314.204 184.28L307.867 180.811C307.51 180.6 307.33 180.352 307.273 180.1L307.341 180.6C307.386 180.855 307.612 181.067 307.893 181.233L314.229 184.703C315.109 185.163 315.799 185.219 316.862 184.633L322.749 181.391C323.112 181.191 323.459 181.05 323.494 180.649L323.542 179.914L323.54 179.915C323.522 180.318 323.228 180.691 322.724 180.969Z" fill="#DDDDFC"/>
<path fill-rule="evenodd" clip-rule="evenodd" d="M311.23 174.433L305.343 177.675C304.28 178.261 303.59 178.205 302.709 177.745L296.373 174.275C296.015 174.065 295.836 173.816 295.78 173.564L295.847 174.064C295.891 174.319 296.118 174.532 296.399 174.697L302.734 178.167C303.615 178.628 304.306 178.683 305.368 178.097L311.255 174.855C311.618 174.655 311.966 174.515 312 174.114L312.048 173.379H312.045C312.027 173.782 311.734 174.155 311.23 174.433Z" fill="#DDDDFC"/>
<path fill-rule="evenodd" clip-rule="evenodd" d="M284.568 166.791L284.549 166.653C284.551 166.699 284.557 166.745 284.568 166.791Z" fill="#DDDDFC"/>
<path fill-rule="evenodd" clip-rule="evenodd" d="M284.548 166.645L284.549 166.652C284.549 166.65 284.549 166.647 284.549 166.645H284.548Z" fill="#DDDDFC"/>
<path fill-rule="evenodd" clip-rule="evenodd" d="M300.018 167.66L294.131 170.902C293.068 171.488 292.379 171.432 291.498 170.973L285.162 167.503C284.804 167.291 284.624 167.043 284.568 166.791L284.635 167.291C284.679 167.546 284.907 167.759 285.187 167.925L291.523 171.395C292.403 171.855 293.094 171.911 294.156 171.325L300.043 168.083C300.406 167.882 300.753 167.742 300.789 167.341L300.836 166.607H300.834C300.816 167.009 300.522 167.383 300.018 167.66Z" fill="#DDDDFC"/>
<path fill-rule="evenodd" clip-rule="evenodd" d="M272.947 160.349L272.929 160.21C272.931 160.256 272.938 160.303 272.947 160.349Z" fill="#DDDDFC"/>
<path fill-rule="evenodd" clip-rule="evenodd" d="M272.927 160.203L272.929 160.21C272.929 160.208 272.929 160.205 272.929 160.203H272.927Z" fill="#DDDDFC"/>
<path fill-rule="evenodd" clip-rule="evenodd" d="M288.398 161.218L282.512 164.461C281.448 165.047 280.759 164.99 279.878 164.53L273.541 161.06C273.184 160.849 273.004 160.601 272.948 160.349L273.015 160.849C273.06 161.105 273.286 161.317 273.567 161.483L279.903 164.953C280.783 165.412 281.474 165.469 282.537 164.883L288.423 161.64C288.786 161.44 289.133 161.3 289.168 160.899L289.216 160.164H289.213C289.196 160.567 288.902 160.941 288.398 161.218Z" fill="#DDDDFC"/>
<path fill-rule="evenodd" clip-rule="evenodd" d="M276.904 154.683L271.018 157.925C269.954 158.511 269.264 158.455 268.383 157.995L262.047 154.525C261.689 154.314 261.51 154.065 261.454 153.813L261.521 154.314C261.565 154.569 261.793 154.782 262.073 154.947L268.409 158.417C269.289 158.877 269.979 158.933 271.043 158.347L276.929 155.105C277.292 154.905 277.64 154.764 277.674 154.363L277.722 153.629H277.719C277.701 154.031 277.408 154.405 276.904 154.683Z" fill="#DDDDFC"/>
<path fill-rule="evenodd" clip-rule="evenodd" d="M249.989 147.373L249.97 147.234C249.973 147.281 249.979 147.327 249.989 147.373Z" fill="#DDDDFC"/>
<path fill-rule="evenodd" clip-rule="evenodd" d="M249.969 147.227L249.97 147.235C249.97 147.232 249.97 147.229 249.97 147.227H249.969Z" fill="#DDDDFC"/>
<path fill-rule="evenodd" clip-rule="evenodd" d="M265.438 148.242L259.552 151.484C258.489 152.071 257.799 152.014 256.919 151.555L250.582 148.085C250.225 147.873 250.045 147.625 249.989 147.373L250.056 147.873C250.1 148.129 250.328 148.341 250.607 148.507L256.944 151.977C257.824 152.437 258.514 152.493 259.577 151.907L265.464 148.665C265.827 148.465 266.174 148.324 266.21 147.923L266.257 147.188H266.254C266.237 147.591 265.943 147.965 265.438 148.242Z" fill="#DDDDFC"/>
<path fill-rule="evenodd" clip-rule="evenodd" d="M238.368 140.931L238.349 140.792C238.352 140.838 238.359 140.885 238.368 140.931Z" fill="#DDDDFC"/>
<path fill-rule="evenodd" clip-rule="evenodd" d="M238.349 140.785L238.349 140.793V140.785H238.349Z" fill="#DDDDFC"/>
<path fill-rule="evenodd" clip-rule="evenodd" d="M253.818 141.801L247.932 145.043C246.869 145.629 246.18 145.572 245.299 145.112L238.962 141.642C238.605 141.432 238.425 141.184 238.369 140.931L238.436 141.432C238.481 141.687 238.707 141.899 238.988 142.065L245.324 145.535C246.204 145.994 246.894 146.051 247.957 145.465L253.844 142.223C254.207 142.022 254.554 141.882 254.589 141.481L254.637 140.746L254.634 140.746C254.616 141.149 254.322 141.523 253.818 141.801Z" fill="#DDDDFC"/>
<path fill-rule="evenodd" clip-rule="evenodd" d="M306.543 193.077L306.524 192.938C306.526 192.985 306.533 193.031 306.543 193.077Z" fill="#DDDDFC"/>
<path fill-rule="evenodd" clip-rule="evenodd" d="M306.523 192.931L306.524 192.939C306.523 192.936 306.524 192.933 306.523 192.931H306.523Z" fill="#DDDDFC"/>
<path fill-rule="evenodd" clip-rule="evenodd" d="M294.923 186.635L294.904 186.496C294.906 186.542 294.913 186.589 294.923 186.635Z" fill="#DDDDFC"/>
<path fill-rule="evenodd" clip-rule="evenodd" d="M294.902 186.489L294.904 186.496V186.489H294.902Z" fill="#DDDDFC"/>
<path fill-rule="evenodd" clip-rule="evenodd" d="M310.372 187.504L304.486 190.747C303.423 191.332 302.733 191.276 301.852 190.816L295.516 187.347C295.158 187.135 294.979 186.887 294.923 186.635L294.99 187.135C295.034 187.391 295.261 187.603 295.542 187.769L301.878 191.239C302.758 191.698 303.448 191.755 304.511 191.169L310.398 187.926C310.761 187.726 311.108 187.586 311.143 187.185L311.191 186.45L311.188 186.45C311.17 186.853 310.877 187.227 310.372 187.504Z" fill="#DDDDFC"/>
<path fill-rule="evenodd" clip-rule="evenodd" d="M298.879 180.969L292.992 184.211C291.93 184.797 291.24 184.741 290.358 184.281L284.022 180.811C283.664 180.6 283.485 180.351 283.429 180.099L283.496 180.6C283.54 180.855 283.768 181.067 284.047 181.233L290.384 184.703C291.264 185.163 291.954 185.219 293.018 184.633L298.904 181.391C299.267 181.191 299.614 181.05 299.649 180.649L299.696 179.915H299.695C299.676 180.317 299.383 180.691 298.879 180.969Z" fill="#DDDDFC"/>
<path fill-rule="evenodd" clip-rule="evenodd" d="M272.217 173.327L272.198 173.188C272.2 173.235 272.207 173.28 272.217 173.327Z" fill="#DDDDFC"/>
<path fill-rule="evenodd" clip-rule="evenodd" d="M272.197 173.18L272.198 173.188C272.197 173.185 272.198 173.183 272.197 173.18H272.197Z" fill="#DDDDFC"/>
<path fill-rule="evenodd" clip-rule="evenodd" d="M287.667 174.196L281.781 177.438C280.717 178.024 280.028 177.968 279.146 177.508L272.81 174.039C272.453 173.826 272.273 173.579 272.217 173.327L272.284 173.826C272.328 174.082 272.555 174.295 272.836 174.461L279.171 177.93C280.052 178.39 280.742 178.446 281.806 177.861L287.692 174.618C288.055 174.418 288.402 174.277 288.438 173.877L288.485 173.142H288.482C288.464 173.545 288.17 173.919 287.667 174.196Z" fill="#DDDDFC"/>
<path fill-rule="evenodd" clip-rule="evenodd" d="M260.597 166.885L260.578 166.746C260.58 166.792 260.587 166.838 260.597 166.885Z" fill="#DDDDFC"/>
<path fill-rule="evenodd" clip-rule="evenodd" d="M260.577 166.738L260.578 166.746V166.738H260.577Z" fill="#DDDDFC"/>
<path fill-rule="evenodd" clip-rule="evenodd" d="M276.047 167.754L270.161 170.996C269.097 171.582 268.407 171.526 267.527 171.066L261.19 167.596C260.833 167.385 260.653 167.137 260.597 166.885L260.664 167.385C260.709 167.64 260.935 167.853 261.216 168.019L267.552 171.488C268.433 171.948 269.122 172.004 270.186 171.418L276.072 168.176C276.435 167.976 276.782 167.835 276.818 167.435L276.865 166.699L276.863 166.7C276.844 167.103 276.551 167.476 276.047 167.754Z" fill="#DDDDFC"/>
<path fill-rule="evenodd" clip-rule="evenodd" d="M264.553 161.218L258.666 164.461C257.604 165.047 256.914 164.99 256.032 164.53L249.696 161.061C249.339 160.85 249.159 160.601 249.103 160.349L249.17 160.849C249.214 161.104 249.442 161.317 249.722 161.483L256.058 164.952C256.938 165.413 257.628 165.469 258.692 164.883L264.578 161.64C264.941 161.44 265.288 161.3 265.323 160.899L265.371 160.164H265.368C265.351 160.567 265.057 160.941 264.553 161.218Z" fill="#DDDDFC"/>
<path fill-rule="evenodd" clip-rule="evenodd" d="M237.638 153.909L237.618 153.77C237.621 153.817 237.628 153.863 237.638 153.909Z" fill="#DDDDFC"/>
<path fill-rule="evenodd" clip-rule="evenodd" d="M237.618 153.762L237.619 153.77C237.619 153.767 237.619 153.765 237.619 153.762H237.618Z" fill="#DDDDFC"/>
<path fill-rule="evenodd" clip-rule="evenodd" d="M253.087 154.778L247.201 158.02C246.138 158.606 245.449 158.55 244.567 158.09L238.231 154.621C237.874 154.408 237.693 154.161 237.638 153.909L237.705 154.408C237.749 154.665 237.977 154.877 238.256 155.043L244.593 158.512C245.473 158.972 246.164 159.028 247.226 158.443L253.113 155.2C253.476 155 253.823 154.859 253.858 154.459L253.906 153.724H253.903C253.885 154.127 253.592 154.5 253.087 154.778Z" fill="#DDDDFC"/>
<path fill-rule="evenodd" clip-rule="evenodd" d="M226.018 147.467L225.999 147.328C226.001 147.374 226.008 147.421 226.018 147.467Z" fill="#DDDDFC"/>
<path fill-rule="evenodd" clip-rule="evenodd" d="M225.997 147.32L225.999 147.328V147.32H225.997Z" fill="#DDDDFC"/>
<path fill-rule="evenodd" clip-rule="evenodd" d="M241.467 148.336L235.582 151.578C234.518 152.164 233.828 152.108 232.948 151.648L226.611 148.178C226.254 147.967 226.073 147.719 226.018 147.467L226.085 147.967C226.129 148.223 226.356 148.435 226.637 148.6L232.973 152.07C233.853 152.53 234.543 152.586 235.607 152L241.493 148.758C241.856 148.558 242.203 148.418 242.238 148.017L242.285 147.282L242.284 147.282C242.265 147.685 241.971 148.058 241.467 148.336Z" fill="#DDDDFC"/>
<path fill-rule="evenodd" clip-rule="evenodd" d="M242.324 135.368L236.439 138.611C235.375 139.197 234.686 139.14 233.805 138.68L227.469 135.211C227.111 134.999 226.931 134.752 226.875 134.5L226.942 134.999C226.987 135.255 227.213 135.467 227.494 135.633L233.83 139.103C234.71 139.563 235.4 139.619 236.464 139.033L242.35 135.791C242.713 135.59 243.061 135.45 243.095 135.049L243.143 134.314L243.14 134.314C243.122 134.717 242.829 135.091 242.324 135.368Z" fill="#DDDDFC"/>
<path fill-rule="evenodd" clip-rule="evenodd" d="M229.973 141.904L224.088 145.146C223.025 145.732 222.335 145.676 221.454 145.216L215.118 141.746C214.76 141.535 214.58 141.287 214.524 141.035L214.591 141.535C214.635 141.79 214.863 142.003 215.143 142.169L221.479 145.638C222.36 146.098 223.049 146.155 224.113 145.569L229.999 142.326C230.363 142.126 230.709 141.986 230.744 141.584L230.792 140.85L230.789 140.85C230.772 141.253 230.478 141.626 229.973 141.904Z" fill="#DDDDFC"/>
<path fill-rule="evenodd" clip-rule="evenodd" d="M334.197 187.457L315.959 197.196C314.896 197.782 314.206 197.726 313.326 197.266L306.99 193.796C306.631 193.586 306.452 193.337 306.396 193.084L306.463 193.585C306.507 193.84 306.735 194.053 307.015 194.218L313.351 197.688C314.231 198.148 314.922 198.204 315.985 197.619L334.222 187.879C334.585 187.679 334.932 187.539 334.968 187.138L335.016 186.403H335.012C334.994 186.805 334.701 187.179 334.197 187.457Z" fill="#DDDDFC"/>
<path fill-rule="evenodd" clip-rule="evenodd" d="M295.111 199.613L295.092 199.474C295.095 199.521 295.101 199.566 295.111 199.613Z" fill="#DDDDFC"/>
<path fill-rule="evenodd" clip-rule="evenodd" d="M295.092 199.466L295.092 199.474C295.092 199.471 295.093 199.469 295.092 199.466H295.092Z" fill="#DDDDFC"/>
<path fill-rule="evenodd" clip-rule="evenodd" d="M310.561 200.482L304.675 203.724C303.612 204.31 302.922 204.254 302.042 203.794L295.705 200.325C295.348 200.112 295.168 199.865 295.111 199.613L295.179 200.112C295.223 200.368 295.45 200.581 295.73 200.747L302.067 204.216C302.947 204.676 303.637 204.732 304.7 204.147L310.586 200.904C310.949 200.704 311.296 200.563 311.332 200.163L311.38 199.428H311.377C311.358 199.831 311.065 200.204 310.561 200.482Z" fill="#DDDDFC"/>
<path fill-rule="evenodd" clip-rule="evenodd" d="M283.491 193.171L283.472 193.032C283.475 193.078 283.481 193.124 283.491 193.171Z" fill="#DDDDFC"/>
<path fill-rule="evenodd" clip-rule="evenodd" d="M283.471 193.024L283.472 193.032C283.473 193.029 283.472 193.027 283.472 193.024H283.471Z" fill="#DDDDFC"/>
<path fill-rule="evenodd" clip-rule="evenodd" d="M298.941 194.04L293.055 197.282C291.992 197.868 291.302 197.812 290.421 197.352L284.085 193.882C283.728 193.671 283.548 193.423 283.491 193.171L283.558 193.671C283.603 193.926 283.83 194.139 284.111 194.305L290.447 197.774C291.327 198.234 292.016 198.29 293.08 197.704L298.967 194.462C299.33 194.262 299.677 194.122 299.712 193.72L299.759 192.985L299.757 192.986C299.739 193.389 299.445 193.762 298.941 194.04Z" fill="#DDDDFC"/>
<path fill-rule="evenodd" clip-rule="evenodd" d="M287.447 187.504L281.561 190.747C280.498 191.332 279.808 191.276 278.927 190.816L272.59 187.347C272.233 187.136 272.053 186.887 271.997 186.635L272.065 187.135C272.109 187.391 272.336 187.603 272.616 187.769L278.952 191.238C279.832 191.699 280.523 191.754 281.586 191.169L287.473 187.926C287.835 187.727 288.183 187.586 288.218 187.185L288.266 186.45H288.263C288.245 186.853 287.951 187.227 287.447 187.504Z" fill="#DDDDFC"/>
<path fill-rule="evenodd" clip-rule="evenodd" d="M260.785 179.862L260.766 179.723C260.769 179.77 260.775 179.816 260.785 179.862Z" fill="#DDDDFC"/>
<path fill-rule="evenodd" clip-rule="evenodd" d="M260.766 179.716L260.766 179.724C260.766 179.721 260.767 179.718 260.766 179.716H260.766Z" fill="#DDDDFC"/>
<path fill-rule="evenodd" clip-rule="evenodd" d="M276.235 180.731L270.349 183.973C269.286 184.559 268.596 184.503 267.715 184.044L261.379 180.574C261.022 180.362 260.842 180.114 260.785 179.862L260.853 180.362C260.897 180.618 261.124 180.83 261.405 180.996L267.741 184.465C268.621 184.925 269.311 184.982 270.374 184.396L276.261 181.154C276.623 180.954 276.97 180.813 277.006 180.412L277.054 179.678H277.051C277.033 180.08 276.739 180.454 276.235 180.731Z" fill="#DDDDFC"/>
<path fill-rule="evenodd" clip-rule="evenodd" d="M249.165 173.42L249.146 173.281C249.149 173.328 249.155 173.374 249.165 173.42Z" fill="#DDDDFC"/>
<path fill-rule="evenodd" clip-rule="evenodd" d="M249.145 173.274L249.146 173.281V173.274H249.145Z" fill="#DDDDFC"/>
<path fill-rule="evenodd" clip-rule="evenodd" d="M264.615 174.29L258.729 177.532C257.666 178.117 256.976 178.061 256.095 177.601L249.759 174.132C249.402 173.921 249.222 173.673 249.165 173.421L249.232 173.92C249.277 174.176 249.504 174.388 249.784 174.554L256.121 178.024C257.001 178.484 257.69 178.54 258.754 177.954L264.641 174.712C265.003 174.511 265.35 174.371 265.386 173.97L265.434 173.235L265.431 173.236C265.413 173.638 265.119 174.012 264.615 174.29Z" fill="#DDDDFC"/>
<path fill-rule="evenodd" clip-rule="evenodd" d="M253.121 167.754L247.235 170.996C246.172 171.582 245.482 171.526 244.601 171.066L238.265 167.597C237.907 167.385 237.728 167.137 237.671 166.885L237.739 167.385C237.783 167.64 238.01 167.853 238.29 168.018L244.626 171.488C245.507 171.948 246.197 172.004 247.26 171.418L253.147 168.176C253.509 167.976 253.857 167.836 253.892 167.435L253.94 166.7H253.937C253.919 167.102 253.626 167.476 253.121 167.754Z" fill="#DDDDFC"/>
<path fill-rule="evenodd" clip-rule="evenodd" d="M226.206 160.444L226.187 160.305C226.19 160.352 226.196 160.398 226.206 160.444Z" fill="#DDDDFC"/>
<path fill-rule="evenodd" clip-rule="evenodd" d="M226.186 160.298L226.187 160.306C226.187 160.303 226.187 160.3 226.187 160.298H226.186Z" fill="#DDDDFC"/>
<path fill-rule="evenodd" clip-rule="evenodd" d="M241.656 161.314L235.77 164.555C234.707 165.141 234.017 165.086 233.136 164.626L226.8 161.157C226.443 160.944 226.263 160.697 226.207 160.445L226.273 160.944C226.318 161.2 226.545 161.413 226.825 161.579L233.161 165.048C234.042 165.508 234.732 165.564 235.795 164.978L241.681 161.736C242.045 161.536 242.392 161.395 242.427 160.994L242.475 160.26H242.472C242.454 160.662 242.16 161.036 241.656 161.314Z" fill="#DDDDFC"/>
<path fill-rule="evenodd" clip-rule="evenodd" d="M214.586 154.003L214.567 153.864C214.57 153.91 214.576 153.956 214.586 154.003Z" fill="#DDDDFC"/>
<path fill-rule="evenodd" clip-rule="evenodd" d="M214.566 153.856L214.567 153.864V153.856H214.566Z" fill="#DDDDFC"/>
<path fill-rule="evenodd" clip-rule="evenodd" d="M230.036 154.872L224.15 158.114C223.086 158.7 222.397 158.643 221.516 158.184L215.18 154.714C214.822 154.502 214.643 154.255 214.586 154.002L214.653 154.502C214.699 154.758 214.925 154.971 215.206 155.136L221.542 158.606C222.422 159.066 223.112 159.122 224.175 158.536L230.061 155.294C230.424 155.094 230.772 154.953 230.807 154.552L230.855 153.817H230.852C230.834 154.22 230.54 154.594 230.036 154.872Z" fill="#DDDDFC"/>
<path fill-rule="evenodd" clip-rule="evenodd" d="M218.542 148.336L212.656 151.578C211.593 152.164 210.903 152.108 210.022 151.648L203.686 148.179C203.328 147.968 203.148 147.719 203.092 147.467L203.16 147.967C203.204 148.222 203.431 148.435 203.712 148.6L210.047 152.07C210.928 152.53 211.618 152.586 212.681 152L218.568 148.758C218.93 148.558 219.278 148.417 219.313 148.017L219.36 147.282H219.358C219.34 147.684 219.046 148.058 218.542 148.336Z" fill="#DDDDFC"/>
<path fill-rule="evenodd" clip-rule="evenodd" d="M282.764 206.148L282.746 206.009C282.748 206.056 282.754 206.101 282.764 206.148Z" fill="#DDDDFC"/>
<path fill-rule="evenodd" clip-rule="evenodd" d="M282.745 206.002L282.746 206.009V206.002H282.745Z" fill="#DDDDFC"/>
<path fill-rule="evenodd" clip-rule="evenodd" d="M298.215 207.017L292.329 210.259C291.265 210.845 290.576 210.789 289.695 210.33L283.358 206.86C283.001 206.648 282.821 206.4 282.765 206.148L282.832 206.648C282.877 206.903 283.104 207.116 283.384 207.282L289.72 210.751C290.6 211.211 291.291 211.267 292.353 210.682L298.24 207.44C298.603 207.239 298.95 207.099 298.986 206.698L299.034 205.963H299.031C299.012 206.366 298.719 206.739 298.215 207.017Z" fill="#DDDDFC"/>
<path fill-rule="evenodd" clip-rule="evenodd" d="M271.145 199.706L271.125 199.567C271.128 199.613 271.135 199.659 271.145 199.706Z" fill="#DDDDFC"/>
<path fill-rule="evenodd" clip-rule="evenodd" d="M271.125 199.56L271.126 199.567C271.126 199.564 271.126 199.562 271.126 199.56H271.125Z" fill="#DDDDFC"/>
<path fill-rule="evenodd" clip-rule="evenodd" d="M286.594 200.575L280.708 203.818C279.645 204.403 278.956 204.347 278.074 203.887L271.738 200.418C271.381 200.206 271.201 199.958 271.145 199.706L271.212 200.206C271.257 200.462 271.483 200.674 271.764 200.84L278.1 204.309C278.98 204.769 279.67 204.826 280.733 204.24L286.62 200.997C286.983 200.797 287.33 200.657 287.365 200.256L287.413 199.521L287.41 199.521C287.392 199.924 287.099 200.298 286.594 200.575Z" fill="#DDDDFC"/>
<path fill-rule="evenodd" clip-rule="evenodd" d="M275.1 194.04L269.215 197.282C268.152 197.868 267.461 197.812 266.581 197.352L214.454 167.716C214.096 167.505 213.916 167.256 213.859 167.004L213.927 167.504C213.972 167.76 214.199 167.972 214.479 168.138L266.606 197.774C267.486 198.234 268.177 198.29 269.24 197.704L275.126 194.462C275.489 194.262 275.836 194.121 275.872 193.72L275.919 192.985H275.916C275.898 193.388 275.605 193.762 275.1 194.04Z" fill="#DDDDFC"/>
<path fill-rule="evenodd" clip-rule="evenodd" d="M248.439 186.398L248.42 186.259C248.423 186.305 248.429 186.351 248.439 186.398Z" fill="#DDDDFC"/>
<path fill-rule="evenodd" clip-rule="evenodd" d="M248.419 186.251L248.42 186.259C248.42 186.256 248.42 186.254 248.42 186.251H248.419Z" fill="#DDDDFC"/>
<path fill-rule="evenodd" clip-rule="evenodd" d="M236.819 179.956L236.8 179.817C236.802 179.863 236.809 179.909 236.819 179.956Z" fill="#DDDDFC"/>
<path fill-rule="evenodd" clip-rule="evenodd" d="M236.799 179.809L236.8 179.817V179.809H236.799Z" fill="#DDDDFC"/>
<path fill-rule="evenodd" clip-rule="evenodd" d="M213.86 166.98L213.841 166.841C213.843 166.888 213.849 166.933 213.86 166.98Z" fill="#DDDDFC"/>
<path fill-rule="evenodd" clip-rule="evenodd" d="M213.84 166.833L213.841 166.841C213.84 166.838 213.841 166.836 213.84 166.833H213.84Z" fill="#DDDDFC"/>
<path fill-rule="evenodd" clip-rule="evenodd" d="M202.24 160.538L202.221 160.399C202.223 160.445 202.23 160.491 202.24 160.538Z" fill="#DDDDFC"/>
<path fill-rule="evenodd" clip-rule="evenodd" d="M202.22 160.391L202.221 160.399V160.391H202.22Z" fill="#DDDDFC"/>
<path fill-rule="evenodd" clip-rule="evenodd" d="M217.689 161.407L211.803 164.649C210.74 165.235 210.05 165.178 209.169 164.719L202.834 161.249C202.476 161.038 202.296 160.79 202.24 160.538L202.307 161.037C202.352 161.294 202.578 161.506 202.859 161.672L209.195 165.141C210.075 165.601 210.765 165.657 211.828 165.072L217.715 161.829C218.078 161.629 218.425 161.489 218.46 161.087L218.508 160.353H218.505C218.487 160.756 218.193 161.129 217.689 161.407Z" fill="#DDDDFC"/>
<path fill-rule="evenodd" clip-rule="evenodd" d="M206.196 154.872L200.309 158.114C199.247 158.699 198.556 158.643 197.676 158.184L191.34 154.714C190.981 154.503 190.802 154.254 190.746 154.002L190.813 154.503C190.857 154.757 191.085 154.97 191.365 155.136L197.701 158.606C198.581 159.066 199.271 159.121 200.335 158.536L206.221 155.293C206.584 155.094 206.931 154.953 206.966 154.552L207.014 153.817H207.011C206.993 154.22 206.7 154.593 206.196 154.872Z" fill="#DDDDFC"/>
<path fill-rule="evenodd" clip-rule="evenodd" d="M243.585 7.80138L243.627 105.581C243.754 109.178 246.549 110.173 246.549 110.173L358.785 173.166C358.785 173.166 360.247 173.956 361.964 174.168C362.972 174.292 364.067 174.218 365.007 173.666C365.101 173.611 365.193 173.555 365.277 173.492C367.285 171.989 367.261 168.193 367.261 168.193V72.8636C367.056 68.7536 363.456 67.226 363.456 67.226L247.712 3.59591C247.712 3.59591 245.48 2.38887 244.504 3.45156C243.467 4.58152 243.585 5.27068 243.585 7.80138Z" fill="#C86DD7"/>
<path fill-rule="evenodd" clip-rule="evenodd" d="M349.084 195.735L353.111 193.431C353.735 193.074 354.103 192.216 353.757 191.607C354.15 191.655 354.517 191.867 354.736 192.219C355.115 192.83 354.743 193.713 354.108 194.076L350.082 196.38C349.709 196.593 349.275 196.608 348.902 196.466C348.637 196.365 348.401 196.188 348.244 195.934C348.237 195.923 348.232 195.911 348.226 195.9C348.513 195.938 348.815 195.889 349.084 195.735Z" fill="#B6B6DD"/>
<path fill-rule="evenodd" clip-rule="evenodd" d="M348.873 194.077L352.899 191.773C353.117 191.648 353.357 191.594 353.594 191.596C353.649 191.596 353.703 191.6 353.757 191.607C354.103 192.216 353.735 193.074 353.111 193.431L349.084 195.735C348.815 195.889 348.513 195.938 348.226 195.9C347.88 195.291 348.249 194.434 348.873 194.077Z" fill="#C7C7EA"/>
<path fill-rule="evenodd" clip-rule="evenodd" d="M274.431 27.6425V120.773L335.535 154.39V61.2589L274.431 27.6425Z" fill="white"/>
<path fill-rule="evenodd" clip-rule="evenodd" d="M274.431 34.503L335.535 68.119V101.908L274.431 68.2909V34.503Z" fill="#DDDDFC"/>
<path fill-rule="evenodd" clip-rule="evenodd" d="M281.787 91.409V100.379L293.912 107.014V98.1671L281.787 91.409Z" fill="#DDDDFC"/>
<path fill-rule="evenodd" clip-rule="evenodd" d="M288.998 81.7334V84.3746L320.247 101.73V99.2112L288.998 81.7334Z" fill="#DDDDFC"/>
<path fill-rule="evenodd" clip-rule="evenodd" d="M294.279 89.213V91.409L315.08 102.825V100.752L294.279 89.213Z" fill="#DDDDFC"/>
<path fill-rule="evenodd" clip-rule="evenodd" d="M281.787 101.73V102.897L293.912 109.533V108.488L281.787 101.73Z" fill="#DDDDFC"/>
<path fill-rule="evenodd" clip-rule="evenodd" d="M281.787 104.509V105.676L291.431 111.01V109.966L281.787 104.509Z" fill="#DDDDFC"/>
<path fill-rule="evenodd" clip-rule="evenodd" d="M298.196 100.484V109.453L310.32 116.088V107.241L298.196 100.484Z" fill="#DDDDFC"/>
<path fill-rule="evenodd" clip-rule="evenodd" d="M298.196 110.805V111.972L310.32 118.607V117.563L298.196 110.805Z" fill="#DDDDFC"/>
<path fill-rule="evenodd" clip-rule="evenodd" d="M298.196 113.378V114.544L307.841 119.879V118.834L298.196 113.378Z" fill="#DDDDFC"/>
<path fill-rule="evenodd" clip-rule="evenodd" d="M314.549 109.558V118.528L326.673 125.163V116.316L314.549 109.558Z" fill="#DDDDFC"/>
<path fill-rule="evenodd" clip-rule="evenodd" d="M314.581 132.278V136.531L325.275 142.382V138.252L314.581 132.278Z" fill="#DDDDFC"/>
<path fill-rule="evenodd" clip-rule="evenodd" d="M314.549 119.879V121.046L326.673 127.682V126.637L314.549 119.879Z" fill="#DDDDFC"/>
<path fill-rule="evenodd" clip-rule="evenodd" d="M314.581 122.435V123.601L324.225 128.936V127.891L314.581 122.435Z" fill="#DDDDFC"/>
<path fill-rule="evenodd" clip-rule="evenodd" d="M314.581 132.278L315.349 131.904L325.913 137.877L325.275 138.252L314.581 132.278Z" fill="#E4E4F4"/>
<path fill-rule="evenodd" clip-rule="evenodd" d="M325.275 138.252L325.913 137.877V142.007L325.275 142.382V138.252Z" fill="#CECEEF"/>
<path fill-rule="evenodd" clip-rule="evenodd" d="M278.046 32.4984C278.543 32.1031 279.317 32.2158 279.775 32.7496C280.233 33.2834 280.202 34.0369 279.705 34.4323C279.207 34.8276 278.433 34.7153 277.975 34.1815C277.517 33.6473 277.548 32.8942 278.046 32.4984Z" fill="#E8F0F4"/>
<path fill-rule="evenodd" clip-rule="evenodd" d="M143.299 129.425C143.299 129.425 78.6266 165.497 76.504 166.68C72.7963 168.746 69.4676 166.357 69.4676 166.357L27.3086 142.952C27.3086 142.952 26.0914 142.417 26.0655 141.052C26.0642 141.046 26.0625 141.04 26.0625 141.034V143.31C26.0625 144.297 27.5629 145.126 27.5629 145.126L69.8231 168.999C69.8231 168.999 73.0447 171.114 76.7464 169.006C78.8571 167.803 143.299 131.394 143.299 131.394C143.299 131.394 145.261 130.486 145.261 128.871V127.433C145.121 128.612 143.299 129.425 143.299 129.425Z" fill="#DDDDFC"/>
<path fill-rule="evenodd" clip-rule="evenodd" d="M142.634 124.609L102.678 101.99C102.678 101.99 99.2059 99.5381 95.2235 101.778L27.3745 139.119C27.3745 139.119 26.0625 139.729 26.0625 141.01C26.0625 141.024 26.0642 141.038 26.0655 141.052C26.0914 142.417 27.3086 142.952 27.3086 142.952L69.4676 166.357C69.4676 166.357 72.7963 168.746 76.504 166.68C78.6266 165.497 143.299 129.425 143.299 129.425C143.299 129.425 145.121 128.612 145.261 127.433C145.422 126.085 142.634 124.609 142.634 124.609Z" fill="#F6F6FF"/>
<path fill-rule="evenodd" clip-rule="evenodd" d="M138.902 127.579L81.497 159.51L40.3417 136.643L97.3943 104.414L138.902 127.579Z" fill="#C86DD7"/>
<path fill-rule="evenodd" clip-rule="evenodd" d="M51.0052 150.862C51.0052 149.887 52.3619 149.096 54.0354 149.096C55.7081 149.096 57.0656 149.887 57.0656 150.862C57.0656 151.837 55.7081 152.628 54.0354 152.628C52.3619 152.628 51.0052 151.837 51.0052 150.862ZM50.7662 150.862C50.7662 151.914 52.2297 152.767 54.0354 152.767C55.8404 152.767 57.3038 151.914 57.3038 150.862C57.3038 149.81 55.8404 148.957 54.0354 148.957C52.2297 148.957 50.7662 149.81 50.7662 150.862Z" fill="#D8D8D8"/>
<path fill-rule="evenodd" clip-rule="evenodd" d="M160.617 62.7914L160.652 63.4739C160.927 68.002 163.192 93.5399 179.603 98.0037C192.759 101.292 196.483 96.5361 196.906 95.9145L198.86 57.4379H160.346L160.617 62.7836V62.7914Z" fill="white"/>
<path fill-rule="evenodd" clip-rule="evenodd" d="M179.603 98.0038C163.193 93.5401 160.926 68.0021 160.652 63.4741L162.433 98.5245C162.433 103.848 170.12 108.165 179.603 108.165C189.086 108.165 196.773 103.848 196.773 98.5245L196.906 95.9147C196.484 96.5362 192.759 101.292 179.603 98.0038Z" fill="#F6F6FF"/>
<path fill-rule="evenodd" clip-rule="evenodd" d="M179.603 104.693C170.544 104.693 163.102 100.811 162.258 95.8491C162.205 96.1592 162.176 96.4727 162.176 96.7903C162.176 102.195 169.979 106.576 179.603 106.576C189.228 106.576 197.03 102.195 197.03 96.7903C197.03 96.4727 197.001 96.1592 196.948 95.8491C196.104 100.811 188.662 104.693 179.603 104.693Z" fill="#F0F0FC"/>
<path fill-rule="evenodd" clip-rule="evenodd" d="M198.453 56.1969C198.453 62.0427 190.014 66.7812 179.603 66.7812C169.192 66.7812 160.752 62.0427 160.752 56.1969C160.752 50.3512 169.192 45.6131 179.603 45.6131C190.014 45.6131 198.453 50.3512 198.453 56.1969Z" fill="white"/>
<path fill-rule="evenodd" clip-rule="evenodd" d="M179.603 69.7859C169.629 69.7859 161.434 65.512 160.505 60.0473C160.447 60.3892 160.415 60.7348 160.415 61.0845C160.415 67.0348 169.006 71.8594 179.603 71.8594C190.2 71.8594 198.792 67.0348 198.792 61.0845C198.792 60.7348 198.759 60.3892 198.701 60.0473C197.772 65.512 189.577 69.7859 179.603 69.7859Z" fill="#F0F0FC"/>
<path fill-rule="evenodd" clip-rule="evenodd" d="M179.603 60.7478C169.809 60.7478 161.763 56.5509 160.851 51.1855C160.793 51.5208 160.762 51.8602 160.762 52.2041C160.762 58.0465 169.197 62.7838 179.603 62.7838C190.008 62.7838 198.444 58.0465 198.444 52.2041C198.444 51.8602 198.412 51.5208 198.356 51.1855C197.443 56.5509 189.396 60.7478 179.603 60.7478Z" fill="#FCFCFC"/>
<path fill-rule="evenodd" clip-rule="evenodd" d="M179.984 66.5673C187.296 67.2263 191.76 66.1974 194.476 64.8109C196.262 63.6762 197.641 62.3362 198.489 60.8612C198.576 60.6367 198.606 60.5041 198.606 60.5041C198.606 60.5041 198.627 60.5156 198.666 60.5342C199.171 59.5514 199.448 58.513 199.448 57.4379C199.448 51.2837 190.563 46.2951 179.603 46.2951C170.81 46.2951 163.358 49.5075 160.752 53.9548C160.743 54.2646 160.562 65.0568 179.984 66.5673Z" fill="white"/>
<path fill-rule="evenodd" clip-rule="evenodd" d="M179.603 68.581C185.527 68.581 190.841 67.122 194.476 64.8108C191.76 66.1973 187.296 67.2262 179.984 66.5672C160.562 65.0567 160.743 54.2649 160.752 53.9547C160.11 55.0508 159.758 56.2214 159.758 57.4382C159.758 63.592 168.643 68.581 179.603 68.581Z" fill="#F6F6FF"/>
<path fill-rule="evenodd" clip-rule="evenodd" d="M198.354 52.3611C198.354 58.1759 189.959 62.8901 179.603 62.8901C169.247 62.8901 160.852 58.1759 160.852 52.3611C160.852 46.5458 169.247 41.832 179.603 41.832C189.959 41.832 198.354 46.5458 198.354 52.3611Z" fill="white"/>
<path fill-rule="evenodd" clip-rule="evenodd" d="M179.603 41.9547C169.334 41.9547 160.978 46.6228 160.978 52.361C160.978 58.0993 169.334 62.7669 179.603 62.7669C189.873 62.7669 198.227 58.0993 198.227 52.361C198.227 46.6228 189.873 41.9547 179.603 41.9547ZM179.603 63.012C169.193 63.012 160.725 58.2344 160.725 52.361C160.725 46.4877 169.193 41.7097 179.603 41.7097C190.012 41.7097 198.481 46.4877 198.481 52.361C198.481 58.2344 190.012 63.012 179.603 63.012Z" fill="#F7F7F7"/>
<path fill-rule="evenodd" clip-rule="evenodd" d="M178.332 58.6217H182.514C182.619 58.6217 182.719 58.6435 182.809 58.6822C182.809 58.674 182.811 58.6657 182.811 58.6575C182.811 58.2641 182.482 57.9449 182.075 57.9449H177.893C177.487 57.9449 177.157 58.2641 177.157 58.6575C177.157 58.95 177.339 59.2 177.598 59.3104C177.611 58.9285 177.934 58.6217 178.332 58.6217Z" fill="#DADEE0"/>
<path fill-rule="evenodd" clip-rule="evenodd" d="M182.075 59.3707C182.473 59.3707 182.796 59.0642 182.809 58.6824C182.719 58.6437 182.619 58.6218 182.513 58.6218H178.332C177.934 58.6218 177.611 58.9283 177.599 59.3105C177.689 59.3488 177.788 59.3707 177.893 59.3707H182.075Z" fill="#E8E8E8"/>
<defs>
<linearGradient id="paint0_linear" x1="392.032" y1="427.925" x2="392.032" y2="115.289" gradientUnits="userSpaceOnUse">
<stop stop-color="white"/>
<stop offset="1" stop-color="#DDDDFF"/>
</linearGradient>
</defs>
</svg>
